<?xml version="1.0" standalone="no"?>
<!DOCTYPE svg PUBLIC "-//W3C//DTD SVG 20010904//EN"
 "http://www.w3.org/TR/2001/REC-SVG-20010904/DTD/svg10.dtd">
<svg version="1.0" xmlns="http://www.w3.org/2000/svg"
 width="1414.000000pt" height="2000.000000pt" viewBox="0 0 1414.000000 2000.000000"
 preserveAspectRatio="xMidYMid meet">

<g transform="translate(0.000000,2000.000000) scale(0.100000,-0.100000)"
fill="#000000" stroke="none">
<path d="M5708 13052 l-1577 -917 -1 -77 0 -78 -1148 0 -1147 0 -27 29 c-110
116 -308 54 -325 -103 -13 -114 69 -208 182 -209 68 0 119 23 152 72 l28 40
1143 1 1142 0 0 -75 0 -75 -645 0 -645 0 -45 34 c-100 77 -231 51 -286 -57
-30 -59 -24 -151 14 -201 39 -51 81 -70 153 -71 50 0 68 5 102 27 23 16 48 41
57 58 l16 30 327 0 327 0 -205 -205 -205 -205 -932 0 -932 0 -6 23 c-9 29 -52
75 -89 94 -39 20 -124 19 -169 -2 -64 -30 -107 -100 -107 -176 0 -41 46 -122
87 -149 30 -20 49 -25 103 -25 56 0 73 4 108 28 l42 27 985 0 c885 0 985 2
985 16 0 8 4 13 8 10 5 -3 136 123 293 280 l284 284 187 0 188 0 0 -445 0
-445 -1670 0 -1669 0 -34 30 c-43 37 -77 50 -133 50 -110 0 -184 -76 -184
-188 0 -121 107 -202 235 -178 39 8 110 65 120 97 6 19 38 19 1671 19 l1664 0
0 -600 0 -600 -183 0 -182 0 -395 395 -395 395 -856 0 -856 0 -19 21 c-27 31
-92 59 -137 59 -42 0 -101 -22 -130 -48 -57 -51 -74 -160 -37 -232 31 -61 90
-95 164 -95 73 0 120 23 155 78 l24 37 811 0 811 0 305 -305 305 -305 -341 0
c-334 0 -341 0 -360 21 -61 68 -181 79 -251 23 -51 -41 -73 -87 -73 -155 0
-185 234 -252 343 -98 l28 39 635 0 634 0 0 -100 0 -100 -1145 0 c-693 0
-1145 4 -1145 9 0 20 -56 75 -95 92 -55 25 -102 24 -161 -6 -61 -31 -95 -80
-102 -144 -6 -63 11 -111 53 -152 74 -73 182 -77 259 -8 l34 29 1151 0 1151 0
0 -109 0 -108 1573 -916 c864 -504 1579 -918 1587 -921 9 -3 689 388 1590 913
l1575 917 3 82 3 82 1124 0 c785 0 1126 -3 1130 -11 4 -6 25 -24 47 -40 35
-24 50 -29 101 -29 85 0 136 31 173 105 31 64 29 124 -7 181 -66 108 -248 112
-314 7 l-20 -32 -1117 -1 -1118 0 0 70 0 70 670 0 670 0 16 -25 c9 -14 37 -37
61 -52 37 -21 53 -25 102 -21 76 5 123 36 156 102 30 59 31 106 6 162 -34 75
-124 120 -208 105 -47 -9 -71 -22 -102 -55 l-24 -26 -326 0 -326 0 205 205
205 205 971 0 970 0 22 -29 c27 -37 98 -71 148 -71 48 0 111 28 143 63 13 15
29 48 36 73 41 161 -112 292 -261 225 -23 -10 -51 -33 -63 -50 l-22 -31 -1015
0 -1014 0 0 -21 c0 -12 -4 -18 -11 -13 -7 4 -127 -109 -293 -275 l-282 -281
-214 2 -215 3 -3 438 -2 437 1659 0 1660 0 18 -23 c44 -56 120 -82 191 -66
155 34 196 231 69 333 -74 59 -202 43 -259 -34 l-22 -30 -1658 0 -1658 0 0
595 0 595 213 0 212 0 395 -395 395 -395 824 0 823 0 21 -26 c46 -59 147 -79
222 -45 186 84 124 354 -80 354 -60 0 -101 -19 -143 -67 l-31 -36 -783 0 -783
0 -305 305 -305 305 303 0 302 0 41 -40 c126 -122 324 -38 322 137 0 60 -27
110 -80 150 -73 56 -200 37 -255 -37 l-22 -30 -643 0 -643 0 0 95 0 95 1121 0
1120 0 26 -30 c36 -43 79 -63 138 -64 98 -1 178 68 191 166 9 62 -28 142 -82
177 -78 53 -202 34 -254 -39 l-21 -30 -1120 0 -1119 0 0 108 0 108 -1570 913
c-863 502 -1578 915 -1587 917 -11 2 -680 -382 -1595 -914z m1584 -527 c-3
-635 -1 -1155 3 -1155 4 0 84 44 177 97 l168 96 0 617 0 616 237 204 c130 113
242 208 249 213 7 4 418 -226 1076 -605 584 -336 1071 -611 1081 -610 16 1 17
-39 17 -694 0 -382 -3 -694 -7 -694 -5 0 -145 82 -313 183 l-305 182 0 337 0
336 -767 441 c-421 243 -769 441 -772 441 -3 0 -6 -1015 -6 -2255 0 -1240 2
-2255 5 -2255 2 0 343 199 757 442 414 243 766 448 781 456 21 10 26 17 18 25
-8 8 -11 118 -11 342 0 304 1 333 18 347 20 17 585 338 595 338 4 0 7 -309 7
-687 l0 -688 -1032 -605 c-567 -333 -1052 -617 -1078 -632 l-47 -28 -249 176
-249 176 -5 565 -5 565 -169 99 c-92 55 -171 99 -174 99 -3 0 -3 -495 0 -1100
4 -605 2 -1100 -2 -1100 -5 0 -584 335 -1287 743 -703 409 -1358 790 -1456
847 l-177 103 2 1751 3 1751 1460 837 c803 461 1461 838 1461 838 1 0 -1 -520
-4 -1155z"/>
<path d="M5828 12292 l-988 -567 0 -622 0 -623 455 0 455 0 0 185 0 185 165 0
165 0 0 -615 0 -615 -165 0 -165 0 0 195 0 195 -455 0 -455 0 2 -616 3 -616
960 -560 c528 -308 972 -566 986 -573 l25 -14 1 2615 c0 1438 -1 2614 -1 2613
-1 0 -445 -256 -988 -567z"/>
<path d="M7294 11080 c-55 -51 -106 -99 -114 -106 -12 -12 19 -14 212 -14
l226 0 -77 73 c-42 39 -92 87 -112 105 l-37 34 -98 -92z"/>
<path d="M7150 10190 c0 -618 2 -760 13 -760 7 0 29 -16 48 -36 18 -20 68 -67
111 -105 l76 -69 116 107 116 108 0 758 0 757 -240 0 -240 0 0 -760z"/>
</g>
</svg>
